<svg width="16" height="14" viewBox="0 0 16 14" fill="none" xmlns="http://www.w3.org/2000/svg">
<path fill-rule="evenodd" clip-rule="evenodd" d="M8 1.75V3.25H14C14.825 3.25 15.5 3.925 15.5 4.75V12.25C15.5 13.075 14.825 13.75 14 13.75H2C1.175 13.75 0.5 13.075 0.5 12.25V1.75C0.5 0.925 1.175 0.25 2 0.25H6.5C7.325 0.25 8 0.925 8 1.75ZM2 12.25H3.5V10.75H2V12.25ZM3.5 9.25H2V7.75H3.5V9.25ZM2 6.25H3.5V4.75H2V6.25ZM3.5 3.25H2V1.75H3.5V3.25ZM5 12.25H6.5V10.75H5V12.25ZM6.5 9.25H5V7.75H6.5V9.25ZM5 6.25H6.5V4.75H5V6.25ZM6.5 3.25H5V1.75H6.5V3.25ZM8 12.25H13.25C13.6625 12.25 14 11.9125 14 11.5V5.5C14 5.0875 13.6625 4.75 13.25 4.75H8V6.25H9.5V7.75H8V9.25H9.5V10.75H8V12.25ZM12.5 6.25H11V7.75H12.5V6.25ZM11 9.25H12.5V10.75H11V9.25Z" fill="#6D7D8B"/>
</svg>
