<svg width="18" height="12" viewBox="0 0 18 12" fill="none" xmlns="http://www.w3.org/2000/svg">
<path fill-rule="evenodd" clip-rule="evenodd" d="M8.2425 3C8.2425 4.245 7.245 5.25 6 5.25C4.755 5.25 3.75 4.245 3.75 3C3.75 1.755 4.755 0.75 6 0.75C7.245 0.75 8.2425 1.755 8.2425 3ZM14.2425 3C14.2425 4.245 13.245 5.25 12 5.25C10.755 5.25 9.75 4.245 9.75 3C9.75 1.755 10.755 0.75 12 0.75C13.245 0.75 14.2425 1.755 14.2425 3ZM6 6.75C4.2525 6.75 0.75 7.6275 0.75 9.375V10.5C0.75 10.9125 1.0875 11.25 1.5 11.25H10.5C10.9125 11.25 11.25 10.9125 11.25 10.5V9.375C11.25 7.6275 7.7475 6.75 6 6.75ZM11.2725 6.7875C11.535 6.765 11.7825 6.75 12 6.75C13.7475 6.75 17.25 7.6275 17.25 9.375V10.5C17.25 10.9125 16.9125 11.25 16.5 11.25H12.615C12.6975 11.0175 12.75 10.7625 12.75 10.5V9.375C12.75 8.2725 12.1575 7.44 11.3025 6.8175C11.3002 6.81523 11.298 6.81227 11.2955 6.80904C11.2898 6.8016 11.283 6.79273 11.2725 6.7875Z" fill="#6D7D8B"/>
</svg>
